<svg width="24" height="24" viewBox="0 0 24 24" fill="none" xmlns="http://www.w3.org/2000/svg">
<path d="M2 5.25732C2 3.45835 3.567 2 5.5 2C7.433 2 9 3.45835 9 5.25732C9 7.04219 7.88292 9.12496 6.14003 9.86978C5.73374 10.0434 5.26626 10.0434 4.85997 9.86978C3.11708 9.12496 2 7.04219 2 5.25732Z" stroke="#727F88"/>
<path d="M15 17.2573C15 15.4584 16.567 14 18.5 14C20.433 14 22 15.4584 22 17.2573C22 19.0422 20.8829 21.125 19.14 21.8698C18.7337 22.0434 18.2663 22.0434 17.86 21.8698C16.1171 21.125 15 19.0422 15 17.2573Z" stroke="#727F88"/>
<path d="M19.5 17.5C19.5 18.0523 19.0523 18.5 18.5 18.5C17.9477 18.5 17.5 18.0523 17.5 17.5C17.5 16.9477 17.9477 16.5 18.5 16.5C19.0523 16.5 19.5 16.9477 19.5 17.5Z" fill="#727F88"/>
<path d="M6.5 5.5C6.5 6.05228 6.05228 6.5 5.5 6.5C4.94772 6.5 4.5 6.05228 4.5 5.5C4.5 4.94772 4.94772 4.5 5.5 4.5C6.05228 4.5 6.5 4.94772 6.5 5.5Z" fill="#727F88"/>
<path d="M12 4.5C11.7238 4.5 11.5 4.72386 11.5 5C11.5 5.27614 11.7238 5.5 12 5.5V4.5ZM12 19L12.3535 19.3536C12.5488 19.1583 12.5488 18.8417 12.3535 18.6464L12 19ZM17.2056 8.68732L17.474 9.10915L17.2056 8.68732ZM6.79434 15.3127L7.06278 15.7345H7.06278L6.79434 15.3127ZM10.8535 17.1464C10.6583 16.9512 10.3417 16.9512 10.1464 17.1464C9.95116 17.3417 9.95116 17.6583 10.1464 17.8536L10.8535 17.1464ZM10.1464 20.1464C9.95116 20.3417 9.95116 20.6583 10.1464 20.8536C10.3417 21.0488 10.6583 21.0488 10.8535 20.8536L10.1464 20.1464ZM16.1319 4.5H12V5.5H16.1319V4.5ZM12 18.5H7.86809V19.5H12V18.5ZM16.9372 8.26549L6.52591 14.8908L7.06278 15.7345L17.474 9.10915L16.9372 8.26549ZM12.3535 18.6464L10.8535 17.1464L10.1464 17.8536L11.6464 19.3536L12.3535 18.6464ZM11.6464 18.6464L10.1464 20.1464L10.8535 20.8536L12.3535 19.3536L11.6464 18.6464ZM7.86809 18.5C6.36742 18.5 5.79672 16.5402 7.06278 15.7345L6.52591 14.8908C4.41581 16.2336 5.36696 19.5 7.86809 19.5V18.5ZM16.1319 5.5C17.6325 5.5 18.2032 7.45982 16.9372 8.26549L17.474 9.10915C19.5841 7.76636 18.633 4.5 16.1319 4.5V5.5Z" fill="#727F88"/>
</svg>
